<svg version="1.2" xmlns="http://www.w3.org/2000/svg" viewBox="0 0 1549 256" width="1549" height="256"><style>.a{fill:#812366}.b{fill:#ffcb35}</style><path class="a" d="m0.1 127.9c0 52.8 32.6 98 79.2 117.4v-118q0-0.9 0-1.8c1.4-21.1 23.6-37.8 50.7-37.8 1.2 0 2.4 0.1 3.6 0.1l0.8 0.1q1.8 0.1 3.6 0.3h0.1c1.2 0.2 2.5 0.4 3.7 0.6h0.1c7.7 1.5 14.7 4.3 20.6 8.2v-92.7c-10.4-2.6-21.2-4-32.3-4-71.9 0-130.1 57.1-130.1 127.6z"/><path class="b" d="m180.7 10.3v117.2c0 22-22.7 39.8-50.7 39.8-9.5 0-18.4-2.1-26-5.7v-19.2c5.8 6.2 15.1 10.3 25.6 10.5 17.9 0.2 32.6-10.8 32.9-24.7 0.2-14-14.1-25.4-32-25.7-17.9-0.3-32.7 10.7-32.9 24.6l0.1 0.7v30.3h-0.1l0.1 93.3c10.3 2.7 21.3 4.1 32.5 4.1 71.8 0 130.1-57.1 130.1-127.6 0-52.9-32.9-98.2-79.6-117.6z"/><path fill-rule="evenodd" class="a" d="m1548.7 160.6c0-4.1-3.3-7.4-7.5-7.4-4.2 0-7.6 3.3-7.5 7.4 0 4.1 3.3 7.4 7.5 7.4 4.2 0 7.5-3.3 7.5-7.4zm-0.8 0c0 3.6-3 6.5-6.7 6.5-3.7 0.1-6.7-2.9-6.7-6.5 0-3.6 3-6.5 6.7-6.5 3.7 0 6.7 2.9 6.7 6.5zm-9.5 3.9h1v-3.5h2.8c1.7 0 1.2 1.5 1.4 2.4l0.2 1.1h1.3c-0.5-0.7-0.3-0.9-0.4-2-0.2-1.4-0.2-1.5-1.1-2.1 0.9-0.6 1.2-0.9 1.2-2-0.2-1.9-1.4-2.1-2.7-2.1h-3.7zm3.7-7.2c0.7 0 1.7 0.2 1.5 1.5 0 1.1-0.7 1.3-1.5 1.3h-2.7v-2.8zm-1192.2 12c13.3 0 23.8-4.4 29.8-11.3 4.7-5.6 6.8-12.5 6.8-21.8v-68.6h-29.2v67.6c0 5.7-2.4 9.8-8.7 9.8-5.5 0-8.9-3.2-8.9-10.1v-7.9h-27v7.6c0 18.6 10.8 34.7 37.2 34.7z"/><path fill-rule="evenodd" class="a" d="m436.1 159.6h-0.3c-4.8 6.6-12.3 9.6-21.5 9.6-13.7 0-23.8-7.4-23.8-21.3 0-15.8 12.2-20.4 25.9-22 15.1-1.6 19.1-3.4 19.1-7.9 0-3.9-1.8-6.9-7.5-6.9-5.8 0-8.7 3.4-9.4 8.6h-25c0.6-14.1 11.5-25.7 33.8-25.7 10.9 0 17.9 1.4 23.3 4.7 7.5 4.6 11.1 11.9 11.1 21.4v35.6c0 6 0.4 9.2 2.6 10.6v1.1h-25.9c-1-1.7-1.9-3.9-2.4-7.8zm0.1-18v-6.3c-2.5 1.3-5.7 2.4-10.2 3.4-7.7 1.6-10 3.9-10 8.1 0 4.7 3.9 6.8 8.2 6.8 6.2 0 12-3.5 12-12zm33.8 6.7l25-25.4c3.5-3.5 7.1-6.7 7.1-6.7v-0.4c0 0-5.7 0.2-10.1 0.2h-19.5v-19.8h62.6v18.3l-23.6 24.2c-4.3 4.3-9.1 8.6-9.1 8.6v0.4c0 0 5.2-0.3 11.6-0.3h23.5v20h-67.5zm73.4 0l25-25.4c3.5-3.5 7.1-6.7 7.1-6.7v-0.4c0 0-5.7 0.3-10.2 0.3h-19.4v-19.9h62.6v18.3l-23.6 24.2c-4.4 4.3-9.1 8.6-9.1 8.6v0.5c0 0 5.1-0.3 11.6-0.3h23.4v20h-67.4zm105.4-80.8h37.7c11.1 0 17.9 2.8 23.2 8 4.8 4.6 7.2 10.9 7.2 19.4 0 18.7-10.8 27.9-31.3 27.9h-29.5v44.6h-7.3zm7.3 48.9h28.9c17.7 0 24.4-8.1 24.4-21.4 0-13.3-7.9-21-23.4-21h-29.9zm76.1-9h0.3c4.7-7.7 12.8-13.6 25.1-13.6 12.3 0 22.1 7.7 22.1 22.1v51.5h-6.8v-50.8c0-11.9-6.5-16.9-16.5-16.9-12.9 0-24.2 9.1-24.2 21.1v46.6h-6.8v-99.8h6.8zm103.9 51.4v-2.6h-0.4c-4 5.8-11.3 13-26.1 13-13.3 0-23-6.8-23-20.1 0-17.2 13.4-20.6 28.5-22.2 17-1.7 20.9-2.5 20.9-9.2v-2.5c0-10.9-6.4-15.7-18.2-15.7-13.5 0-20.8 5.6-21.8 16.2h-6.9c1.4-13.9 10.7-22 28.7-22 16.1 0 25 7.1 25 21.9v42.5c0 3.9 2.1 5 4.7 5 0.9 0 2.1-0.3 3.3-0.7h0.4v5c-1.1 0.6-2.8 1.1-5.6 1.1-5.5 0-9.5-3-9.5-9.7zm-0.1-17.1v-13.4c-5 2.5-12.7 3.5-20.1 4.3-12.7 1.4-22.4 3.1-22.4 16.8 0 10.2 7.6 14.1 16.8 14.1 16.3 0 25.7-10.9 25.7-21.8zm29.9-32.2h0.3c2.5-5.1 5.8-9 10.2-11.5 4.3-2.5 7.9-3.2 13.2-3.2v6.8c-4-0.1-7.2 0.5-10.2 1.7-7.6 3.5-13.5 11.8-13.5 22.4v41.7h-6.9v-72.2h6.9zm33-14.2h6.8v11.3h0.3c4.7-7.4 11.2-12.7 22.3-12.7 9 0 16.8 4.4 19.6 13.2h0.4c4.8-8.2 12.7-13.2 23.9-13.2 12 0 21.8 7.7 21.8 22v51.6h-6.9v-50.9c0-11.8-6.5-16.9-16.4-16.9-11.4 0-20.9 7.3-20.9 21.1v46.7h-6.8v-50.9c0-11.8-6.8-16.9-15.9-16.9-11.3 0-21.4 9.1-21.4 21.1v46.7h-6.8zm151.5 63.5v-2.5h-0.4c-4 5.7-11.3 13-26.1 13-13.3 0-23.1-6.9-23.1-20.1 0-17.2 13.4-20.7 28.5-22.2 17.1-1.7 21-2.5 21-9.3v-2.5c0-10.9-6.4-15.6-18.2-15.6-13.5 0-20.8 5.6-21.8 16.2h-7c1.4-14 10.8-22.1 28.8-22.1 16.1 0 25 7.2 25 22v42.4c0 3.9 2.1 5 4.6 5 1 0 2.1-0.2 3.4-0.7h0.4v5.1c-1.1 0.5-2.8 1.1-5.6 1.1-5.6 0-9.5-3.1-9.5-9.8zm-0.1-17v-13.4c-5 2.5-12.7 3.5-20.1 4.3-12.7 1.4-22.4 3.1-22.4 16.8 0 10.1 7.6 14.1 16.8 14.1 16.3 0 25.7-10.9 25.7-21.8zm19.5-10.4c0-21.7 10.9-37.7 31.6-37.7 15.1 0 25.6 7.9 27.8 22.4h-6.7c-2.4-11.5-9.8-16.5-21.1-16.5-17.5 0-24.6 14.5-24.6 31.8 0 17.3 7.3 31.9 24.5 31.9 12.5 0 20.8-8.4 22.3-20.3h6.4c-1.8 15.7-12.1 26.3-28.7 26.3-20.9 0-31.5-16.1-31.5-37.9zm70.2 0.7c0.1 17.4 7.9 31.2 25.7 31.2 12.9 0 19-7.6 21.9-17.3h6.6c-3 13.4-12.5 23.3-28.5 23.3-21.3 0-32.7-15.7-32.7-37.9 0-22.2 12.4-37.7 32.1-37.7 7.8 0 14.3 2.5 19 7 8 7.4 10.6 17.8 10.5 31.4zm25.1-32.5c-15.6 0-23.6 11.7-25 26.9h47.5c-0.4-14.2-6.6-26.9-22.5-26.9zm83.3 67.9v-11.1h-0.3c-4.8 7-11 12.7-23.2 12.7-13.3 0-23.2-7.9-23.2-22.3v-51.5h6.9v50.8c0 11.9 6.8 17.2 17.6 17.2 12.7 0 22.2-9.7 22.2-22.4v-45.6h6.8v72.2zm15.8-72.2h11.2v-21.8h6.8v21.8h13.2v5.7h-13.2v54.2c0 5.3 2.1 7 6.9 7 1.8 0 4.2-0.6 5.4-1.3h0.4v5.9c-2.2 0.8-4.3 1.2-7.2 1.2-7.4 0-12.3-3.8-12.3-12.3v-54.7h-11.2zm42.6 0h6.9v72.2h-6.9zm0-27.7h6.9v11.2h-6.9zm15 63.8c0-21.8 10.9-37.7 31.5-37.7 15.1 0 25.6 7.8 27.8 22.4h-6.7c-2.4-11.5-9.8-16.5-21.1-16.5-17.4 0-24.6 14.5-24.6 31.8 0 17.3 7.3 31.9 24.5 31.9 12.6 0 20.8-8.4 22.3-20.3h6.5c-1.9 15.7-12.2 26.3-28.8 26.3-20.8 0-31.4-16.1-31.4-37.9zm115.2 27.4v-2.5h-0.4c-4.1 5.7-11.3 13-26.1 13-13.3 0-23.1-6.9-23.1-20.1 0-17.2 13.4-20.7 28.5-22.2 17-1.7 21-2.6 21-9.3v-2.5c0-10.9-6.5-15.6-18.2-15.6-13.6 0-20.8 5.6-21.8 16.2h-7c1.4-14 10.8-22.1 28.8-22.1 16.1 0 25 7.1 25 21.9v42.5c0 3.9 2.1 5 4.6 5 1 0 2.1-0.3 3.4-0.7h0.4v5.1c-1.1 0.5-2.8 1.1-5.6 1.1-5.6 0-9.5-3.1-9.5-9.8zm-0.1-17v-13.4c-5.1 2.5-12.8 3.4-20.2 4.3-12.7 1.4-22.3 3.1-22.3 16.7 0 10.2 7.5 14.1 16.8 14.1 16.3 0 25.7-10.9 25.7-21.7zm30.3-74.2v99.8h-6.9v-99.8zm9.8 78.1h7c1 11.8 9.5 17.7 21.5 17.7 12.2 0 19.4-6 19.4-15.5 0-7.8-3.7-10.9-19.7-14.7-14.8-3.4-25.8-7.4-25.8-20.2 0-12 10.9-19.3 24.6-19.3 16.6 0 24 8.8 25.7 20.6h-6.7c-1-9.3-8.1-14.6-19-14.6-11.8 0-17.8 5.6-17.8 13.2 0 8.3 6.7 10.7 21.5 14.2 14.6 3.3 24.1 7.3 24.1 20.9 0 11.8-9.4 21.3-26.3 21.3-18.9 0-27.8-11.2-28.5-23.6z"/></svg>